<?xml version="1.0" encoding="UTF-8"?>
<svg width="30px" height="18px" viewBox="0 0 30 18" version="1.1" xmlns="http://www.w3.org/2000/svg" xmlns:xlink="http://www.w3.org/1999/xlink">
    <!-- Generator: Sketch 55.2 (78181) - https://sketchapp.com -->
    <title>Shape Copy</title>
    <desc>Created with Sketch.</desc>
    <g id="Page-1" stroke="none" stroke-width="1" fill="none" fill-rule="evenodd">
        <g id="Desktop-HD-Copy-12" transform="translate(-705.000000, -982.000000)" fill="#FFFFFF">
            <path d="M722.108174,983.136662 C720.943861,981.956616 719.058861,981.953857 717.891826,983.136662 L706.108174,995.079554 C704.943861,996.2596 704.942078,998.171025 706.106699,999.351384 L705.626634,998.864832 C706.790132,1000.04405 708.67551,1000.04509 709.842049,998.862789 L720,988.567568 L730.157951,998.862789 C731.322563,1000.04314 733.205291,1000.04869 734.020677,999.222287 L732.266667,1001 C733.23538,1000.0182 736,997.216216 736,997.216216 L734.020677,999.222287 C735.113827,998.114365 735.058861,996.262359 733.891826,995.079554 L722.108174,983.136662 Z" id="Shape-Copy" transform="translate(720.000000, 991.000000) scale(1, -1) translate(-720.000000, -991.000000) "></path>
        </g>
    </g>
</svg>