<svg xmlns="http://www.w3.org/2000/svg" width="302" height="302" viewBox="0 0 302 302">
  <path fill="#FFF" fill-rule="evenodd" d="M151,0 L226.5,0 L302,0 L302,75.6051 L226.5,75.6051 L151,75.6051 L75.5,75.6051 L75.5,151.21 L75.5,156.058 L75.5,226.375 L75.5,226.815 L75.5,301.98 L0,301.98 L0,226.815 L0,226.375 L0,156.058 L0,151.21 L0,75.6051 L0,0 L75.5,0 L151,0 Z M226.502,226.395 L151.442,226.395 L151.442,151.23 L301.958,151.23 L301.958,229.039 C301.958,248.382 294.288,266.933 280.634,280.615 C266.98,294.296 248.459,301.988 229.143,302 L226.502,302 L226.502,226.395 Z"/>
</svg>
