<svg width="159" height="144" viewBox="0 0 159 144" fill="none" xmlns="http://www.w3.org/2000/svg">
<path fill-rule="evenodd" clip-rule="evenodd" d="M22 2L59.5 17H102.5L130.5 6L88.5 38V45L112.5 64.5L146 74L157 106L147 138.5L116 130H110L93 144H67L49 130H42.5L13.5 138.5L2.5 106L13.5 74L49 64.5L71 45V38L22 2ZM51.5 93V89L60 85H63.5L67.5 96L51.5 93ZM107.5 89V93L91.5 96L95.5 85H99L107.5 89ZM67 132.5V120L71.5 117H88L92.5 120V132.5L90.5 130.5H69L67 132.5Z" fill="white"/>
<path d="M95 41L150 0L159 23.5L151.5 48L155.5 50L151.5 55.5H154L150 61L154 64L147.5 69L116.5 59L95 41Z" fill="white"/>
<path d="M64 41L9 0L0 23.5L7.5 48L3.5 50L7.5 55.5H5L9 61L5 64L11.5 69L42.5 59L64 41Z" fill="white"/>
</svg>
