<?xml version="1.0" encoding="UTF-8"?>
<svg width="154px" height="37px" viewBox="0 0 154 37" version="1.1" xmlns="http://www.w3.org/2000/svg" xmlns:xlink="http://www.w3.org/1999/xlink">
    <!-- Generator: Sketch 55.2 (78181) - https://sketchapp.com -->
    <title>Group Copy 2</title>
    <desc>Created with Sketch.</desc>
    <g id="Page-1" stroke="none" stroke-width="1" fill="none" fill-rule="evenodd">
        <g id="Desktop-HD-Copy-12" transform="translate(-82.000000, -42.000000)" fill-rule="nonzero">
            <g id="Group-Copy-2" transform="translate(82.000000, 42.000000)">
                <path d="M97.7072701,34.7811245 C98.2400899,34.7811245 98.7343926,34.6907631 99.1901781,34.5100402 C99.6459637,34.3293173 100.039159,34.0732932 100.369764,33.7419679 C100.700369,33.4106426 100.958755,33.0123829 101.144921,32.5471888 C101.331087,32.0819946 101.424169,31.5682731 101.424169,31.0060241 C101.424169,30.4370817 101.331087,29.9233601 101.144921,29.4648594 C100.958755,29.0063588 100.700369,28.6164659 100.369764,28.2951807 C100.039159,27.9738956 99.6459637,27.7262383 99.1901781,27.5522088 C98.7343926,27.3781794 98.2400899,27.2911647 97.7072701,27.2911647 C97.1744503,27.2911647 96.6817525,27.3781794 96.2291767,27.5522088 C95.7766009,27.7262383 95.3850104,27.9738956 95.0544054,28.2951807 C94.7238004,28.6164659 94.4654149,29.0063588 94.2792489,29.4648594 C94.093083,29.9233601 94,30.4370817 94,31.0060241 C94,31.5682731 94.093083,32.0819946 94.2792489,32.5471888 C94.4654149,33.0123829 94.7238004,33.4106426 95.0544054,33.7419679 C95.3850104,34.0732932 95.7766009,34.3293173 96.2291767,34.5100402 C96.6817525,34.6907631 97.1744503,34.7811245 97.7072701,34.7811245 Z M97.7072701,33.2148594 C97.4183919,33.2148594 97.1551918,33.1596386 96.9176697,33.0491968 C96.6801476,32.938755 96.476328,32.7864793 96.3062109,32.5923695 C96.1360937,32.3982597 96.0028888,32.1656627 95.9065961,31.8945783 C95.8103033,31.623494 95.762157,31.3273092 95.762157,31.0060241 C95.762157,30.6981258 95.8086984,30.4103079 95.9017814,30.1425703 C95.9948644,29.8748327 96.1280693,29.6455823 96.3013962,29.4548193 C96.4747232,29.2640562 96.6801476,29.1134538 96.9176697,29.003012 C97.1551918,28.8925703 97.4183919,28.8373494 97.7072701,28.8373494 C97.9961483,28.8373494 98.2609533,28.8925703 98.5016851,29.003012 C98.7424169,29.1134538 98.9478414,29.2640562 99.1179586,29.4548193 C99.2880758,29.6455823 99.4212807,29.8748327 99.5175734,30.1425703 C99.6138662,30.4103079 99.6620125,30.6981258 99.6620125,31.0060241 C99.6620125,31.3273092 99.6138662,31.623494 99.5175734,31.8945783 C99.4212807,32.1656627 99.2864709,32.3982597 99.113144,32.5923695 C98.939817,32.7864793 98.7343926,32.938755 98.4968705,33.0491968 C98.2593484,33.1596386 97.9961483,33.2148594 97.7072701,33.2148594 Z M103.600385,37 L103.600385,34.0381526 L103.619644,34.0381526 C103.767293,34.2523427 103.972717,34.4213521 104.235917,34.5451807 C104.499117,34.6690094 104.778366,34.7309237 105.073664,34.7309237 C105.433157,34.7309237 105.754133,34.6572959 106.036591,34.5100402 C106.31905,34.3627845 106.558177,34.1670013 106.753972,33.9226908 C106.949767,33.6783802 107.099021,33.3955823 107.201733,33.0742972 C107.304446,32.753012 107.355802,32.41834 107.355802,32.0702811 C107.355802,31.7222222 107.302841,31.3892236 107.196919,31.0712851 C107.090997,30.7533467 106.940138,30.4738956 106.744343,30.2329317 C106.548548,29.9919679 106.309421,29.8012048 106.026962,29.6606426 C105.744503,29.5200803 105.429947,29.4497992 105.083293,29.4497992 C104.73022,29.4497992 104.423688,29.5251004 104.163698,29.6757028 C103.903707,29.8263052 103.699888,30.002008 103.552239,30.2028112 L103.552239,30.2028112 L103.523351,30.2028112 L103.523351,29.5903614 L102.021184,29.5903614 L102.021184,37 L103.600385,37 Z M104.698122,33.3654618 C104.518376,33.3654618 104.357888,33.3286479 104.216659,33.2550201 C104.075429,33.1813922 103.955063,33.0843373 103.855561,32.9638554 C103.756058,32.8433735 103.679024,32.706158 103.624458,32.5522088 C103.569892,32.3982597 103.54261,32.2409639 103.54261,32.0803213 C103.54261,31.9196787 103.569892,31.7623829 103.624458,31.6084337 C103.679024,31.4544846 103.756058,31.3172691 103.855561,31.1967871 C103.955063,31.0763052 104.075429,30.9792503 104.216659,30.9056225 C104.357888,30.8319946 104.518376,30.7951807 104.698122,30.7951807 C104.884288,30.7951807 105.047986,30.8319946 105.189215,30.9056225 C105.330445,30.9792503 105.447601,31.0746319 105.540684,31.1917671 C105.633767,31.3089023 105.704381,31.4444444 105.752528,31.5983936 C105.800674,31.7523427 105.824747,31.9096386 105.824747,32.0702811 C105.824747,32.2309237 105.800674,32.3898929 105.752528,32.5471888 C105.704381,32.7044846 105.633767,32.8433735 105.540684,32.9638554 C105.447601,33.0843373 105.330445,33.1813922 105.189215,33.2550201 C105.047986,33.3286479 104.884288,33.3654618 104.698122,33.3654618 Z M109.820896,34.7108434 C109.987803,34.7108434 110.15471,34.6957831 110.321618,34.6656627 C110.488525,34.6355422 110.626545,34.6004016 110.735676,34.560241 L110.735676,34.560241 L110.716418,33.3554217 C110.658642,33.3821954 110.586423,33.4022758 110.499759,33.4156627 C110.413096,33.4290495 110.331247,33.435743 110.254213,33.435743 C110.02953,33.435743 109.873857,33.3771754 109.787193,33.2600402 C109.70053,33.142905 109.657198,32.9672021 109.657198,32.7329317 L109.657198,32.7329317 L109.657198,30.8253012 L110.783823,30.8253012 L110.783823,29.5903614 L109.657198,29.5903614 L109.657198,28.2751004 L108.106885,28.2751004 L108.106885,29.5903614 L107.346172,29.5903614 L107.346172,30.8253012 L108.116514,30.8253012 L108.116514,32.9337349 C108.116514,33.2014726 108.145402,33.4441098 108.203178,33.6616466 C108.260953,33.8791834 108.355641,34.0665997 108.487241,34.2238956 C108.618841,34.3811914 108.793773,34.5016734 109.012037,34.5853414 C109.2303,34.6690094 109.49992,34.7108434 109.820896,34.7108434 Z M111.929706,28.8975904 C112.051677,28.8975904 112.168833,28.8741633 112.281175,28.8273092 C112.393516,28.7804552 112.489809,28.7168675 112.570053,28.6365462 C112.650297,28.5562249 112.714492,28.4608434 112.762638,28.3504016 C112.810785,28.2399598 112.834858,28.1211513 112.834858,27.9939759 C112.834858,27.8668005 112.810785,27.747992 112.762638,27.6375502 C112.714492,27.5271084 112.650297,27.4317269 112.570053,27.3514056 C112.489809,27.2710843 112.393516,27.2074967 112.281175,27.1606426 C112.168833,27.1137885 112.051677,27.0903614 111.929706,27.0903614 C111.801316,27.0903614 111.682555,27.1154618 111.573423,27.1656627 C111.464291,27.2158635 111.367999,27.2811245 111.284545,27.3614458 C111.201091,27.4417671 111.136896,27.5371486 111.09196,27.6475904 C111.047023,27.7580321 111.024555,27.873494 111.024555,27.9939759 C111.024555,28.2416332 111.111218,28.4541499 111.284545,28.6315261 C111.457872,28.8089023 111.672926,28.8975904 111.929706,28.8975904 Z M112.719307,34.5903614 L112.719307,29.5903614 L111.140106,29.5903614 L111.140106,34.5903614 L112.719307,34.5903614 Z M115.98363,34.751004 C116.349543,34.751004 116.692987,34.6874163 117.013962,34.560241 C117.334938,34.4330656 117.617397,34.2540161 117.861338,34.0230924 C118.10528,33.7921687 118.297866,33.5110442 118.439095,33.1797189 C118.580324,32.8483936 118.650939,32.478581 118.650939,32.0702811 C118.650939,31.6619813 118.580324,31.293842 118.439095,30.9658635 C118.297866,30.6378849 118.10528,30.3601071 117.861338,30.1325301 C117.617397,29.9049531 117.334938,29.7309237 117.013962,29.6104418 C116.692987,29.4899598 116.349543,29.4297189 115.98363,29.4297189 C115.624137,29.4297189 115.282298,29.4899598 114.958113,29.6104418 C114.633927,29.7309237 114.351468,29.9049531 114.110737,30.1325301 C113.870005,30.3601071 113.679024,30.6378849 113.537795,30.9658635 C113.396566,31.293842 113.325951,31.6619813 113.325951,32.0702811 C113.325951,32.478581 113.396566,32.8483936 113.537795,33.1797189 C113.679024,33.5110442 113.870005,33.7921687 114.110737,34.0230924 C114.351468,34.2540161 114.633927,34.4330656 114.958113,34.560241 C115.282298,34.6874163 115.624137,34.751004 115.98363,34.751004 Z M115.99326,33.3654618 C115.807094,33.3654618 115.643396,33.3286479 115.502167,33.2550201 C115.360937,33.1813922 115.242176,33.082664 115.145883,32.9588353 C115.049591,32.8350067 114.977371,32.6961178 114.929225,32.5421687 C114.881078,32.3882195 114.857005,32.2309237 114.857005,32.0702811 C114.857005,31.9096386 114.881078,31.7523427 114.929225,31.5983936 C114.977371,31.4444444 115.047986,31.3089023 115.141069,31.1917671 C115.234152,31.0746319 115.351308,30.9792503 115.492537,30.9056225 C115.633767,30.8319946 115.797464,30.7951807 115.98363,30.7951807 C116.169796,30.7951807 116.333494,30.8319946 116.474723,30.9056225 C116.615952,30.9792503 116.734714,31.0746319 116.831006,31.1917671 C116.927299,31.3089023 117.001123,31.4444444 117.05248,31.5983936 C117.103836,31.7523427 117.129514,31.9096386 117.129514,32.0702811 C117.129514,32.2309237 117.105441,32.3882195 117.057294,32.5421687 C117.009148,32.6961178 116.936928,32.8350067 116.840636,32.9588353 C116.744343,33.082664 116.625582,33.1813922 116.484352,33.2550201 C116.343123,33.3286479 116.179425,33.3654618 115.99326,33.3654618 Z M120.836784,34.5903614 L120.836784,31.8795181 C120.836784,31.7389558 120.854437,31.6034137 120.889745,31.4728916 C120.925052,31.3423695 120.978013,31.2269076 121.048628,31.126506 C121.119242,31.0261044 121.207511,30.9474565 121.313433,30.8905622 C121.419355,30.833668 121.542931,30.8052209 121.68416,30.8052209 C121.825389,30.8052209 121.942545,30.833668 122.035628,30.8905622 C122.128711,30.9474565 122.200931,31.0244311 122.252287,31.1214859 C122.303643,31.2185408 122.340555,31.330656 122.363024,31.4578313 C122.385492,31.5850067 122.396726,31.7188755 122.396726,31.8594378 L122.396726,31.8594378 L122.396726,34.5903614 L123.985556,34.5903614 L123.985556,31.497992 C123.985556,31.2503347 123.955063,31.0026774 123.894078,30.7550201 C123.833093,30.5073628 123.73359,30.2881526 123.595571,30.0973896 C123.457551,29.9066265 123.2762,29.751004 123.051517,29.6305221 C122.826834,29.5100402 122.554004,29.4497992 122.233028,29.4497992 C122.066121,29.4497992 121.908843,29.4732262 121.761194,29.5200803 C121.613545,29.5669344 121.47713,29.6271754 121.35195,29.7008032 C121.226769,29.7744311 121.117638,29.8631191 121.024555,29.9668675 C120.931472,30.0706158 120.856042,30.1760375 120.798267,30.2831325 L120.798267,30.2831325 L120.779008,30.2831325 L120.779008,29.5903614 L119.247954,29.5903614 L119.247954,34.5903614 L120.836784,34.5903614 Z M126.354357,34.751004 C126.598299,34.751004 126.84224,34.7208835 127.086182,34.6606426 C127.330124,34.6004016 127.549992,34.5033467 127.745787,34.3694779 C127.941582,34.2356091 128.100465,34.0599063 128.222436,33.8423695 C128.344407,33.6248327 128.405392,33.3587684 128.405392,33.0441767 C128.405392,32.8032129 128.360456,32.5957162 128.270583,32.4216867 C128.180709,32.2476573 128.061948,32.1004016 127.914299,31.9799197 C127.766651,31.8594378 127.601348,31.7623829 127.418392,31.688755 C127.235436,31.6151272 127.054084,31.5582329 126.874338,31.5180723 C126.566201,31.4444444 126.343123,31.37751 126.205104,31.3172691 C126.067084,31.2570281 125.998074,31.1566265 125.998074,31.0160643 C125.998074,30.8688086 126.060664,30.7650602 126.185845,30.7048193 C126.311026,30.6445783 126.44744,30.6144578 126.595089,30.6144578 C126.787675,30.6144578 126.970631,30.6579652 127.143958,30.7449799 C127.317285,30.8319946 127.468143,30.9390897 127.596533,31.0662651 L127.596533,31.0662651 L128.463168,30.1325301 C128.225646,29.8982597 127.935163,29.7225569 127.591719,29.6054217 C127.248275,29.4882865 126.896806,29.4297189 126.537313,29.4297189 C126.306211,29.4297189 126.073503,29.4615127 125.839191,29.5251004 C125.604879,29.5886881 125.39143,29.6874163 125.198844,29.8212851 C125.006259,29.9551539 124.848981,30.12751 124.72701,30.3383534 C124.605039,30.5491968 124.544054,30.8052209 124.544054,31.1064257 C124.544054,31.3406961 124.585781,31.5414993 124.669234,31.7088353 C124.752688,31.8761714 124.860215,32.0167336 124.991815,32.1305221 C125.123415,32.2443106 125.272669,32.334672 125.439576,32.4016064 C125.606484,32.4685408 125.773391,32.5220884 125.940299,32.562249 C126.267694,32.6425703 126.508426,32.7195448 126.662494,32.7931727 C126.816562,32.8668005 126.893597,32.980589 126.893597,33.1345382 C126.893597,33.2951807 126.831006,33.4072959 126.705826,33.4708835 C126.580645,33.5344712 126.45386,33.5662651 126.325469,33.5662651 C126.094367,33.5662651 125.876103,33.5127175 125.670679,33.4056225 C125.465254,33.2985274 125.291927,33.1646586 125.150698,33.0040161 L125.150698,33.0040161 L124.264805,33.9779116 C124.515166,34.2322624 124.828117,34.4246988 125.203659,34.5552209 C125.579201,34.685743 125.962767,34.751004 126.354357,34.751004 Z M133.691863,34.5903614 L133.691863,28.9477912 L135.617718,28.9477912 L135.617718,27.4819277 L130.119403,27.4819277 L130.119403,28.9477912 L132.045258,28.9477912 L132.045258,34.5903614 L133.691863,34.5903614 Z M136.590274,34.5903614 L136.590274,32.0200803 C136.590274,31.9196787 136.609533,31.8025435 136.64805,31.6686747 C136.686567,31.5348059 136.749157,31.4109772 136.835821,31.2971888 C136.922484,31.1834003 137.038036,31.0863454 137.182475,31.0060241 C137.326914,30.9257028 137.505055,30.8855422 137.716899,30.8855422 C137.781095,30.8855422 137.846895,30.8888889 137.914299,30.8955823 C137.981704,30.9022758 138.050714,30.9156627 138.121329,30.935743 L138.121329,30.935743 L138.188734,29.4899598 C138.150217,29.476573 138.100465,29.4665328 138.03948,29.4598394 C137.978495,29.4531459 137.915904,29.4497992 137.851709,29.4497992 C137.556411,29.4497992 137.296421,29.5301205 137.071738,29.6907631 C136.847055,29.8514056 136.673728,30.0589023 136.551757,30.313253 L136.551757,30.313253 L136.532499,30.313253 L136.532499,29.5903614 L135.011074,29.5903614 L135.011074,34.5903614 L136.590274,34.5903614 Z M139.710159,34.7108434 C139.999037,34.7108434 140.267052,34.6539491 140.514203,34.5401606 C140.761355,34.4263722 140.945916,34.2657296 141.067886,34.0582329 L141.067886,34.0582329 L141.096774,34.0582329 L141.096774,34.5903614 L142.541165,34.5903614 L142.541165,32.0702811 C142.541165,31.6151272 142.501043,31.2218876 142.420799,30.8905622 C142.340555,30.5592369 142.21377,30.2848059 142.040443,30.0672691 C141.867116,29.8497323 141.640828,29.6890897 141.361579,29.5853414 C141.08233,29.481593 140.740491,29.4297189 140.336062,29.4297189 C139.944471,29.4297189 139.560905,29.5 139.185364,29.6405622 C138.809822,29.7811245 138.480822,29.9919679 138.198363,30.2730924 L138.198363,30.2730924 L138.997593,31.1666667 C139.145242,31.0261044 139.323383,30.9056225 139.532017,30.8052209 C139.740652,30.7048193 139.95731,30.6546185 140.181993,30.6546185 C140.425935,30.6546185 140.631359,30.7131861 140.798267,30.8303213 C140.965174,30.9474565 141.048628,31.1298527 141.048628,31.37751 L141.048628,31.37751 L141.048628,31.4578313 C140.701974,31.4578313 140.345691,31.4779116 139.979779,31.5180723 C139.613866,31.5582329 139.281656,31.6385542 138.983149,31.7590361 C138.684641,31.8795181 138.4407,32.0502008 138.251324,32.2710843 C138.061948,32.4919679 137.96726,32.7831325 137.96726,33.1445783 C137.96726,33.4390897 138.021826,33.686747 138.130958,33.8875502 C138.24009,34.0883534 138.379714,34.248996 138.549831,34.3694779 C138.719949,34.4899598 138.907719,34.5769746 139.113144,34.6305221 C139.318568,34.6840696 139.517573,34.7108434 139.710159,34.7108434 Z M140.104959,33.6064257 C140.027925,33.6064257 139.947681,33.5980589 139.864227,33.5813253 C139.780774,33.5645917 139.706949,33.5361446 139.642754,33.4959839 C139.578559,33.4558233 139.525598,33.4022758 139.483871,33.3353414 C139.442144,33.268407 139.421281,33.1880857 139.421281,33.0943775 C139.421281,32.9471218 139.466217,32.8283133 139.556091,32.7379518 C139.645964,32.6475904 139.75991,32.5789826 139.89793,32.5321285 C140.035949,32.4852744 140.193227,32.4534806 140.369764,32.436747 C140.546301,32.4200134 140.721233,32.4116466 140.894559,32.4116466 L140.894559,32.4116466 L141.096774,32.4116466 L141.096774,32.5823293 C141.096774,32.896921 141.011716,33.1462517 140.841598,33.3303213 C140.671481,33.5143909 140.425935,33.6064257 140.104959,33.6064257 Z M145.352913,34.7309237 C145.673889,34.7309237 145.977211,34.6623159 146.262879,34.5251004 C146.548548,34.3878849 146.768416,34.1921017 146.922484,33.937751 L146.922484,33.937751 L146.941743,33.937751 L146.941743,34.5903614 L148.395763,34.5903614 L148.395763,27 L146.816562,27 L146.816562,30.12249 L146.797304,30.12249 C146.662494,29.9551539 146.473118,29.8012048 146.229177,29.6606426 C145.985235,29.5200803 145.686728,29.4497992 145.333654,29.4497992 C144.987,29.4497992 144.674049,29.5200803 144.3948,29.6606426 C144.115551,29.8012048 143.878029,29.9919679 143.682234,30.2329317 C143.486439,30.4738956 143.33558,30.7533467 143.229658,31.0712851 C143.123736,31.3892236 143.070775,31.7222222 143.070775,32.0702811 C143.070775,32.41834 143.122131,32.753012 143.224844,33.0742972 C143.327556,33.3955823 143.47681,33.6783802 143.672605,33.9226908 C143.8684,34.1670013 144.107527,34.3627845 144.389986,34.5100402 C144.672444,34.6572959 144.99342,34.7309237 145.352913,34.7309237 Z M145.728455,33.3654618 C145.542289,33.3654618 145.378591,33.3286479 145.237362,33.2550201 C145.096132,33.1813922 144.977371,33.0843373 144.881078,32.9638554 C144.784786,32.8433735 144.712566,32.7044846 144.66442,32.5471888 C144.616273,32.3898929 144.5922,32.2309237 144.5922,32.0702811 C144.5922,31.9096386 144.616273,31.7523427 144.66442,31.5983936 C144.712566,31.4444444 144.784786,31.3089023 144.881078,31.1917671 C144.977371,31.0746319 145.096132,30.9792503 145.237362,30.9056225 C145.378591,30.8319946 145.542289,30.7951807 145.728455,30.7951807 C145.908201,30.7951807 146.068689,30.8319946 146.209918,30.9056225 C146.351147,30.9792503 146.471513,31.0763052 146.571016,31.1967871 C146.670518,31.3172691 146.747553,31.4544846 146.802118,31.6084337 C146.856684,31.7623829 146.883967,31.9196787 146.883967,32.0803213 C146.883967,32.2409639 146.856684,32.3982597 146.802118,32.5522088 C146.747553,32.706158 146.670518,32.8433735 146.571016,32.9638554 C146.471513,33.0843373 146.351147,33.1813922 146.209918,33.2550201 C146.068689,33.3286479 145.908201,33.3654618 145.728455,33.3654618 Z M151.640828,34.751004 C152.128711,34.751004 152.557214,34.6589692 152.926336,34.4748996 C153.295458,34.29083 153.592361,34.0281124 153.817044,33.686747 L153.817044,33.686747 L152.719307,32.9638554 C152.610175,33.1178046 152.468946,33.2433066 152.295619,33.3403614 C152.122292,33.4374163 151.910448,33.4859438 151.660087,33.4859438 C151.518857,33.4859438 151.382443,33.4625167 151.250843,33.4156627 C151.119242,33.3688086 151.000481,33.3035475 150.894559,33.2198795 C150.788637,33.1362115 150.701974,33.0374833 150.634569,32.9236948 C150.567164,32.8099063 150.527042,32.6827309 150.514203,32.5421687 L150.514203,32.5421687 L153.990371,32.5421687 C153.99679,32.4819277 154,32.41834 154,32.3514056 L154,32.3514056 L154,32.1506024 C154,31.7222222 153.940619,31.3406961 153.821858,31.0060241 C153.703097,30.6713521 153.537795,30.3868809 153.325951,30.1526104 C153.114107,29.91834 152.860536,29.7392905 152.565238,29.6154618 C152.269941,29.4916332 151.945755,29.4297189 151.592682,29.4297189 C151.226769,29.4297189 150.886535,29.4933066 150.571979,29.6204819 C150.257423,29.7476573 149.984593,29.9267068 149.753491,30.1576305 C149.522388,30.3885542 149.339432,30.6696787 149.204622,31.001004 C149.069812,31.3323293 149.002407,31.7021419 149.002407,32.1104418 C149.002407,32.5321285 149.071417,32.9069612 149.209437,33.2349398 C149.347456,33.5629183 149.536832,33.8390228 149.777564,34.063253 C150.018296,34.2874833 150.299149,34.458166 150.620125,34.5753012 C150.941101,34.6924364 151.281335,34.751004 151.640828,34.751004 Z M152.54598,31.5180723 L150.514203,31.5180723 C150.520623,31.3908969 150.55272,31.2687416 150.610496,31.1516064 C150.668272,31.0344712 150.745306,30.9323963 150.841598,30.8453815 C150.937891,30.7583668 151.050233,30.689759 151.178623,30.6395582 C151.307013,30.5893574 151.448243,30.564257 151.602311,30.564257 C151.916867,30.564257 152.152784,30.6579652 152.310063,30.8453815 C152.467341,31.0327979 152.54598,31.2570281 152.54598,31.5180723 L152.54598,31.5180723 Z" id="OptionsTrade" fill="#FFFFFF"></path>
                <path d="M8.89190335,25.7172414 C10.1161509,25.7172414 11.2652254,25.51133 12.3391267,25.0995074 C13.4130281,24.6876847 14.3580613,24.1078818 15.1742264,23.3600985 C15.9903914,22.6123153 16.6347322,21.7019704 17.1072488,20.629064 C17.5797654,19.5561576 17.8160237,18.3586207 17.8160237,17.0364532 C17.8160237,15.7142857 17.5797654,14.5221675 17.1072488,13.4600985 C16.6347322,12.3980296 15.9903914,11.4985222 15.1742264,10.7615764 C14.3580613,10.0246305 13.4130281,9.46108374 12.3391267,9.07093596 C11.2652254,8.68078818 10.1161509,8.48571429 8.89190335,8.48571429 C7.68913381,8.48571429 6.54542885,8.68078818 5.46078847,9.07093596 C4.37614809,9.46108374 3.43111488,10.0246305 2.62568885,10.7615764 C1.82026282,11.4985222 1.18129151,12.3980296 0.708774905,13.4600985 C0.236258302,14.5221675 0,15.7142857 0,17.0364532 C0,18.3586207 0.236258302,19.5561576 0.708774905,20.629064 C1.18129151,21.7019704 1.82026282,22.6123153 2.62568885,23.3600985 C3.43111488,24.1078818 4.37614809,24.6876847 5.46078847,25.0995074 C6.54542885,25.51133 7.68913381,25.7172414 8.89190335,25.7172414 Z M8.92412039,21.2305419 C8.3012576,21.2305419 7.7535679,21.11133 7.28105129,20.8729064 C6.80853469,20.6344828 6.41119118,20.3147783 6.08902077,19.9137931 C5.76685036,19.5128079 5.52522255,19.0630542 5.36413735,18.564532 C5.20305214,18.0660099 5.12250954,17.5566502 5.12250954,17.0364532 C5.12250954,16.5162562 5.20305214,16.0068966 5.36413735,15.5083744 C5.52522255,15.0098522 5.76148085,14.570936 6.07291225,14.1916256 C6.38434365,13.8123153 6.77631765,13.5034483 7.24883425,13.2650246 C7.72135085,13.026601 8.26904055,12.9073892 8.89190335,12.9073892 C9.51476614,12.9073892 10.0624558,13.026601 10.5349724,13.2650246 C11.007489,13.5034483 11.4048326,13.8123153 11.727003,14.1916256 C12.0491734,14.570936 12.2961707,15.0098522 12.4679949,15.5083744 C12.6398191,16.0068966 12.7257312,16.5162562 12.7257312,17.0364532 C12.7257312,17.5566502 12.6451886,18.0660099 12.4841034,18.564532 C12.3230182,19.0630542 12.0813904,19.5128079 11.75922,19.9137931 C11.4370496,20.3147783 11.0397061,20.6344828 10.5671895,20.8729064 C10.0946729,21.11133 9.54698318,21.2305419 8.92412039,21.2305419 Z M25.1615091,25.1970443 L25.1615091,16.4512315 C25.1615091,15.4758621 25.4085064,14.6576355 25.9025011,13.9965517 C26.3964957,13.335468 27.1052706,13.0049261 28.0288258,13.0049261 C28.5013424,13.0049261 28.8879469,13.0970443 29.1886393,13.2812808 C29.4893316,13.4655172 29.7309594,13.7147783 29.9135227,14.029064 C30.0960859,14.3433498 30.2195846,14.7064039 30.2840187,15.1182266 C30.3484527,15.5300493 30.3806698,15.9635468 30.3806698,16.4187192 L30.3806698,16.4187192 L30.3806698,25.1970443 L35.6964816,25.1970443 L35.6964816,15.1832512 C35.6964816,14.3812808 35.5944609,13.5793103 35.3904197,12.7773399 C35.1863784,11.9753695 34.853469,11.2655172 34.3916914,10.6477833 C33.9299138,10.0300493 33.328529,9.52610837 32.5875371,9.13596059 C31.8465451,8.74581281 30.9283595,8.55073892 29.8329801,8.55073892 C28.7161227,8.55073892 27.7603504,8.80541872 26.9656634,9.31477833 C26.1709764,9.82413793 25.5910697,10.4039409 25.2259432,11.0541872 L25.2259432,11.0541872 L25.1615091,11.0541872 L25.1615091,0.61773399 L19.8779144,0.61773399 L19.8779144,25.1970443 L25.1615091,25.1970443 Z M43.6540907,25.1970443 L43.6540907,16.4187192 C43.6540907,15.4433498 43.8849795,14.6197044 44.3467571,13.9477833 C44.8085347,13.2758621 45.458245,12.9399015 46.2958881,12.9399015 C47.0905751,12.9399015 47.6704818,13.2108374 48.0356083,13.7527094 C48.4007348,14.2945813 48.583298,15.0315271 48.583298,15.9635468 L48.583298,15.9635468 L48.583298,25.1970443 L53.8668928,25.1970443 L53.8668928,16.4512315 C53.8668928,15.9960591 53.9205878,15.5571429 54.027978,15.1344828 C54.1353681,14.7118227 54.3018228,14.337931 54.5273421,14.0128079 C54.7528614,13.6876847 55.0320757,13.4275862 55.3649852,13.2325123 C55.6978946,13.0374384 56.0898686,12.9399015 56.5409072,12.9399015 C57.0134238,12.9399015 57.3946588,13.0320197 57.6846121,13.2162562 C57.9745655,13.4004926 58.2054543,13.644335 58.3772785,13.9477833 C58.5491027,14.2512315 58.6672319,14.6142857 58.731666,15.0369458 C58.7961,15.4596059 58.8283171,15.8985222 58.8283171,16.3536946 L58.8283171,16.3536946 L58.8283171,25.1970443 L64.1119118,25.1970443 L64.1119118,15.1832512 C64.1119118,14.4246305 64.0098912,13.6497537 63.8058499,12.8586207 C63.6018087,12.0674877 63.2742688,11.3522167 62.8232302,10.7128079 C62.3721916,10.073399 61.7761763,9.55320197 61.0351844,9.15221675 C60.2941925,8.75123153 59.3760068,8.55073892 58.2806274,8.55073892 C57.0778578,8.55073892 56.0576515,8.8 55.2200085,9.29852217 C54.3823654,9.79704433 53.6950685,10.4689655 53.1581178,11.3142857 C52.7070793,10.4256158 52.078847,9.74285714 51.2734209,9.26600985 C50.4679949,8.78916256 49.4853752,8.55073892 48.3255617,8.55073892 C47.7241769,8.55073892 47.1711177,8.62660099 46.6663841,8.77832512 C46.1616504,8.93004926 45.7052423,9.13054187 45.2971598,9.37980296 C44.8890773,9.62906404 44.5400593,9.91625616 44.250106,10.2413793 C43.9601526,10.5665025 43.7185248,10.9024631 43.5252226,11.2492611 L43.5252226,11.2492611 L43.4607885,11.2492611 L43.4607885,9.00591133 L38.3382789,9.00591133 L38.3382789,25.1970443 L43.6540907,25.1970443 Z M68.7511657,33 C69.760633,33 70.6358627,32.8807882 71.3768546,32.6423645 C72.1178465,32.4039409 72.7621874,32.0517241 73.3098771,31.5857143 C73.8575668,31.1197044 74.3300834,30.5561576 74.7274269,29.8950739 C75.1247704,29.2339901 75.4845273,28.4807882 75.8066978,27.635468 L75.8066978,27.635468 L82.9910979,9.00591133 L77.3853328,9.00591133 L74.1958457,19.4098522 L74.0991946,19.4098522 L70.523103,9.00591133 L64.6596015,9.00591133 L71.3607461,24.9369458 L70.8452734,26.2699507 C70.5875371,26.9635468 70.2761057,27.5 69.9109792,27.8793103 C69.5458528,28.2586207 68.955207,28.4482759 68.139042,28.4482759 C67.8813056,28.4482759 67.5967218,28.4211823 67.2852904,28.3669951 C66.973859,28.3128079 66.6892751,28.2423645 66.4315388,28.155665 L66.4315388,28.155665 L65.851632,32.6423645 C66.2382365,32.7507389 66.6946446,32.8374384 67.2208563,32.9024631 C67.747068,32.9674877 68.2571711,33 68.7511657,33 Z M92.462908,25.1970443 C94.030804,25.1970443 95.577222,24.9748768 97.1021619,24.5305419 C98.6271019,24.0862069 99.9963261,23.3926108 101.209835,22.4497537 C102.423343,21.5068966 103.400593,20.3039409 104.141585,18.8408867 C104.882577,17.3778325 105.253073,15.6384236 105.253073,13.6226601 C105.253073,11.4551724 104.877208,9.63448276 104.125477,8.16059113 C103.373746,6.68669951 102.385757,5.51083744 101.161509,4.63300493 C99.9372616,3.75517241 98.5411898,3.12660099 96.9732938,2.74729064 C95.4053978,2.3679803 93.8160237,2.17832512 92.2051717,2.17832512 L92.2051717,2.17832512 L83.9576092,2.17832512 L83.9576092,25.1970443 L92.462908,25.1970443 Z M91.9474354,20.3852217 L89.337855,20.3852217 L89.337855,6.92512315 L92.0763035,6.92512315 C93.0213367,6.92512315 93.9395224,7.03349754 94.8308605,7.25024631 C95.7221987,7.46699507 96.5168857,7.83004926 97.2149216,8.33940887 C97.9129575,8.84876847 98.4713862,9.53152709 98.8902077,10.3876847 C99.3090292,11.2438424 99.51844,12.3221675 99.51844,13.6226601 C99.51844,14.9014778 99.3090292,15.9743842 98.8902077,16.8413793 C98.4713862,17.7083744 97.9129575,18.4019704 97.2149216,18.9221675 C96.5168857,19.4423645 95.7114597,19.8162562 94.7986435,20.0438424 C93.8858273,20.2714286 92.9354246,20.3852217 91.9474354,20.3852217 L91.9474354,20.3852217 Z M115.272573,25.7172414 C116.904903,25.7172414 118.338562,25.4192118 119.573548,24.8231527 C120.808535,24.2270936 121.801893,23.3763547 122.553624,22.270936 L122.553624,22.270936 L118.880882,19.9300493 C118.515755,20.4285714 118.043239,20.8349754 117.463332,21.1492611 C116.883425,21.4635468 116.17465,21.6206897 115.337007,21.6206897 C114.864491,21.6206897 114.408083,21.5448276 113.967783,21.3931034 C113.527483,21.2413793 113.13014,21.0300493 112.775752,20.7591133 C112.421365,20.4881773 112.131412,20.1684729 111.905892,19.8 C111.680373,19.4315271 111.546135,19.0197044 111.503179,18.564532 L111.503179,18.564532 L123.133531,18.564532 C123.155009,18.3694581 123.165748,18.1635468 123.165748,17.946798 L123.165748,17.946798 L123.165748,17.2965517 C123.165748,15.9093596 122.967076,14.6738916 122.569733,13.5901478 C122.172389,12.5064039 121.61933,11.5852217 120.910555,10.826601 C120.20178,10.0679803 119.353398,9.48817734 118.365409,9.08719212 C117.37742,8.6862069 116.292779,8.48571429 115.111488,8.48571429 C113.88724,8.48571429 112.748905,8.69162562 111.696482,9.10344828 C110.644058,9.51527094 109.731242,10.0950739 108.958033,10.8428571 C108.184824,11.5906404 107.5727,12.5009852 107.121662,13.5738916 C106.670623,14.646798 106.445104,15.844335 106.445104,17.1665025 C106.445104,18.5320197 106.675993,19.7458128 107.13777,20.8078818 C107.599548,21.8699507 108.23315,22.7640394 109.038576,23.4901478 C109.844002,24.2162562 110.783665,24.7689655 111.857567,25.1482759 C112.931468,25.5275862 114.069804,25.7172414 115.272573,25.7172414 Z M118.300975,15.2482759 L111.503179,15.2482759 C111.524657,14.8364532 111.632047,14.4408867 111.82535,14.0615764 C112.018652,13.682266 112.276388,13.3517241 112.598559,13.0699507 C112.920729,12.7881773 113.296595,12.5660099 113.726155,12.4034483 C114.155716,12.2408867 114.628232,12.1596059 115.143705,12.1596059 C116.196128,12.1596059 116.985446,12.4630542 117.511657,13.0699507 C118.037869,13.6768473 118.300975,14.4029557 118.300975,15.2482759 L118.300975,15.2482759 Z M131.252226,25.1970443 L131.252226,13.0049261 L134.828317,13.0049261 L134.828317,9.00591133 L131.252226,9.00591133 L131.252226,7.38029557 C131.252226,7.01182266 131.284443,6.64334975 131.348877,6.27487685 C131.413311,5.90640394 131.53144,5.57586207 131.703264,5.28325123 C131.875088,4.99064039 132.111347,4.75763547 132.412039,4.58423645 C132.712731,4.41083744 133.110075,4.32413793 133.60407,4.32413793 C133.861806,4.32413793 134.119542,4.34581281 134.377279,4.38916256 C134.635015,4.43251232 134.860534,4.48669951 135.053836,4.55172414 L135.053836,4.55172414 L135.408224,0.325123153 C135.043097,0.216748768 134.640384,0.13546798 134.200085,0.0812807882 C133.759785,0.0270935961 133.314116,0 132.863078,0 C131.53144,0 130.419952,0.200492611 129.528614,0.601477833 C128.637276,1.00246305 127.928501,1.54433498 127.402289,2.2270936 C126.876077,2.90985222 126.505581,3.70098522 126.290801,4.60049261 C126.076021,5.5 125.968631,6.44827586 125.968631,7.4453202 L125.968631,7.4453202 L125.968631,9.00591133 L123.03688,9.00591133 L123.03688,13.0049261 L125.968631,13.0049261 L125.968631,25.1970443 L131.252226,25.1970443 Z M139.69309,6.76256158 C140.101173,6.76256158 140.487777,6.68669951 140.852904,6.53497537 C141.21803,6.38325123 141.540201,6.1773399 141.819415,5.91724138 C142.098629,5.65714286 142.318779,5.34827586 142.479864,4.99064039 C142.64095,4.63300493 142.721492,4.24827586 142.721492,3.8364532 C142.721492,3.42463054 142.64095,3.03990148 142.479864,2.68226601 C142.318779,2.32463054 142.098629,2.01576355 141.819415,1.75566502 C141.540201,1.4955665 141.21803,1.28965517 140.852904,1.13793103 C140.487777,0.986206897 140.101173,0.910344828 139.69309,0.910344828 C139.26353,0.910344828 138.866186,0.991625616 138.50106,1.15418719 C138.135933,1.31674877 137.813763,1.52807882 137.534549,1.78817734 C137.255334,2.04827586 137.040554,2.35714286 136.890208,2.71477833 C136.739862,3.07241379 136.664688,3.44630542 136.664688,3.8364532 C136.664688,4.63842365 136.954642,5.32660099 137.534549,5.90098522 C138.114455,6.47536946 138.833969,6.76256158 139.69309,6.76256158 Z M142.334888,25.1970443 L142.334888,9.00591133 L137.019076,9.00591133 L137.019076,25.1970443 L142.334888,25.1970443 Z M151.548961,17.4916256 L151.548961,2.17832512 L146.136499,2.17832512 L146.136499,17.4916256 L151.548961,17.4916256 Z M148.84273,25.5221675 C149.272291,25.5221675 149.680373,25.4408867 150.066978,25.2783251 C150.453582,25.1157635 150.791861,24.8990148 151.081814,24.6280788 C151.371768,24.3571429 151.597287,24.0320197 151.758372,23.6527094 C151.919457,23.273399 152,22.8669951 152,22.4334975 C152,22.0216749 151.919457,21.6261084 151.758372,21.246798 C151.597287,20.8674877 151.371768,20.5423645 151.081814,20.2714286 C150.791861,20.0004926 150.453582,19.7837438 150.066978,19.6211823 C149.680373,19.4586207 149.272291,19.3773399 148.84273,19.3773399 C148.413169,19.3773399 148.005087,19.4586207 147.618482,19.6211823 C147.231878,19.7837438 146.898968,20.0059113 146.619754,20.2876847 C146.34054,20.5694581 146.12039,20.9 145.959305,21.2793103 C145.79822,21.6586207 145.717677,22.0541872 145.717677,22.4660099 C145.717677,22.8995074 145.803589,23.3004926 145.975413,23.6689655 C146.147238,24.0374384 146.372757,24.3625616 146.651971,24.644335 C146.931186,24.9261084 147.258725,25.1428571 147.634591,25.2945813 C148.010456,25.4463054 148.413169,25.5221675 148.84273,25.5221675 Z" id="ohmyDef!" fill="#CEED74"></path>
            </g>
        </g>
    </g>
</svg>