<?xml version="1.0" encoding="UTF-8"?>
<svg width="145px" height="32px" viewBox="0 0 145 32" version="1.1" xmlns="http://www.w3.org/2000/svg" xmlns:xlink="http://www.w3.org/1999/xlink">
    <!-- Generator: Sketch 55.2 (78181) - https://sketchapp.com -->
    <title>ohmyDef! Copy</title>
    <desc>Created with Sketch.</desc>
    <g id="Page-1" stroke="none" stroke-width="1" fill="none" fill-rule="evenodd">
        <g id="Desktop-HD-Copy-12" transform="translate(-136.000000, -1925.000000)" fill="#B6E059" fill-rule="nonzero">
            <path d="M144.439703,1949.1877 C145.601691,1949.1877 146.692329,1948.99404 147.711617,1948.60671 C148.730905,1948.21938 149.627878,1947.67406 150.402537,1946.97075 C151.177196,1946.26744 151.788769,1945.41124 152.237255,1944.40214 C152.685742,1943.39305 152.909985,1942.26674 152.909985,1941.0232 C152.909985,1939.77967 152.685742,1938.65846 152.237255,1937.65955 C151.788769,1936.66065 151.177196,1935.81464 150.402537,1935.12153 C149.627878,1934.42841 148.730905,1933.89838 147.711617,1933.53144 C146.692329,1933.1645 145.601691,1932.98102 144.439703,1932.98102 C143.298101,1932.98102 142.212559,1933.1645 141.183079,1933.53144 C140.153598,1933.89838 139.256625,1934.42841 138.492159,1935.12153 C137.727693,1935.81464 137.121217,1936.66065 136.67273,1937.65955 C136.224243,1938.65846 136,1939.77967 136,1941.0232 C136,1942.26674 136.224243,1943.39305 136.67273,1944.40214 C137.121217,1945.41124 137.727693,1946.26744 138.492159,1946.97075 C139.256625,1947.67406 140.153598,1948.21938 141.183079,1948.60671 C142.212559,1948.99404 143.298101,1949.1877 144.439703,1949.1877 Z M144.470282,1944.96785 C143.879095,1944.96785 143.359258,1944.85573 142.910772,1944.63148 C142.462285,1944.40724 142.085148,1944.10655 141.779362,1943.72941 C141.473576,1943.35228 141.244236,1942.92927 141.091343,1942.4604 C140.93845,1941.99153 140.862003,1941.51246 140.862003,1941.0232 C140.862003,1940.53395 140.93845,1940.05488 141.091343,1939.58601 C141.244236,1939.11714 141.468479,1938.70432 141.764073,1938.34757 C142.059666,1937.99082 142.431706,1937.70033 142.880193,1937.47608 C143.32868,1937.25184 143.848516,1937.13972 144.439703,1937.13972 C145.03089,1937.13972 145.550727,1937.25184 145.999214,1937.47608 C146.4477,1937.70033 146.824837,1937.99082 147.130623,1938.34757 C147.436409,1938.70432 147.670846,1939.11714 147.833932,1939.58601 C147.997018,1940.05488 148.078561,1940.53395 148.078561,1941.0232 C148.078561,1941.51246 148.002114,1941.99153 147.849221,1942.4604 C147.696328,1942.92927 147.466988,1943.35228 147.161202,1943.72941 C146.855415,1944.10655 146.478279,1944.40724 146.029792,1944.63148 C145.581306,1944.85573 145.061469,1944.96785 144.470282,1944.96785 Z M159.881914,1948.69844 L159.881914,1940.47279 C159.881914,1939.55543 160.11635,1938.78587 160.585223,1938.1641 C161.054095,1937.54234 161.726825,1937.23145 162.603412,1937.23145 C163.051899,1937.23145 163.418843,1937.31809 163.704243,1937.49137 C163.989644,1937.66465 164.218984,1937.89909 164.392263,1938.19468 C164.565542,1938.49027 164.68276,1938.83174 164.743917,1939.21907 C164.805074,1939.60639 164.835653,1940.01411 164.835653,1940.44221 L164.835653,1940.44221 L164.835653,1948.69844 L169.881128,1948.69844 L169.881128,1939.28022 C169.881128,1938.52595 169.784295,1937.77168 169.590631,1937.0174 C169.396966,1936.26313 169.080987,1935.5955 168.642693,1935.0145 C168.204399,1934.43351 167.633598,1933.95954 166.930289,1933.5926 C166.226981,1933.22565 165.35549,1933.04218 164.315816,1933.04218 C163.255757,1933.04218 162.348591,1933.28171 161.594318,1933.76078 C160.840045,1934.23984 160.289629,1934.78516 159.943071,1935.39674 L159.943071,1935.39674 L159.881914,1935.39674 L159.881914,1925.58099 L154.867018,1925.58099 L154.867018,1948.69844 L159.881914,1948.69844 Z M177.43405,1948.69844 L177.43405,1940.44221 C177.43405,1939.52485 177.653197,1938.75019 178.091491,1938.11823 C178.529785,1937.48628 179.146454,1937.1703 179.941499,1937.1703 C180.695772,1937.1703 181.246187,1937.42512 181.592745,1937.93476 C181.939303,1938.44441 182.112582,1939.13752 182.112582,1940.01411 L182.112582,1940.01411 L182.112582,1948.69844 L187.127478,1948.69844 L187.127478,1940.47279 C187.127478,1940.04469 187.178442,1939.63188 187.280371,1939.23435 C187.3823,1938.83683 187.540289,1938.48518 187.75434,1938.17939 C187.96839,1937.87361 188.233405,1937.62898 188.549384,1937.4455 C188.865364,1937.26203 189.237404,1937.1703 189.665504,1937.1703 C190.113991,1937.1703 190.475838,1937.25694 190.751046,1937.43022 C191.026254,1937.60349 191.245401,1937.83283 191.408487,1938.11823 C191.571573,1938.40364 191.683694,1938.7451 191.744852,1939.14262 C191.806009,1939.54014 191.836588,1939.95295 191.836588,1940.38105 L191.836588,1940.38105 L191.836588,1948.69844 L196.851484,1948.69844 L196.851484,1939.28022 C196.851484,1938.56672 196.754651,1937.83793 196.560987,1937.09385 C196.367322,1936.34977 196.056439,1935.67704 195.628338,1935.07566 C195.200237,1934.47428 194.634533,1933.98502 193.931224,1933.60789 C193.227915,1933.23075 192.356424,1933.04218 191.316751,1933.04218 C190.175148,1933.04218 189.206825,1933.27662 188.41178,1933.74549 C187.616736,1934.21436 186.964392,1934.84632 186.454748,1935.64136 C186.026647,1934.80555 185.430364,1934.1634 184.665898,1933.71491 C183.901432,1933.26642 182.968783,1933.04218 181.867953,1933.04218 C181.297151,1933.04218 180.772218,1933.11353 180.293153,1933.25623 C179.814088,1933.39893 179.38089,1933.5875 178.993561,1933.82194 C178.606231,1934.05637 178.274963,1934.32648 177.999755,1934.63227 C177.724547,1934.93806 177.495208,1935.25404 177.311736,1935.58021 L177.311736,1935.58021 L177.250579,1935.58021 L177.250579,1933.47028 L172.388576,1933.47028 L172.388576,1948.69844 L177.43405,1948.69844 Z M201.254807,1956.03731 C202.212938,1956.03731 203.043657,1955.92519 203.746966,1955.70095 C204.450274,1955.47671 205.061847,1955.14544 205.581684,1954.70714 C206.101521,1954.26885 206.550007,1953.73882 206.927144,1953.11705 C207.30428,1952.49529 207.645742,1951.78688 207.951528,1950.99184 L207.951528,1950.99184 L214.770564,1933.47028 L209.449881,1933.47028 L206.422596,1943.25545 L206.330861,1943.25545 L202.936632,1933.47028 L197.37132,1933.47028 L203.731677,1948.45381 L203.242418,1949.70754 C202.997789,1950.35988 202.702196,1950.86443 202.355638,1951.22118 C202.00908,1951.57793 201.448472,1951.75631 200.673813,1951.75631 C200.429184,1951.75631 200.159073,1951.73082 199.863479,1951.67986 C199.567886,1951.62889 199.297774,1951.56264 199.053145,1951.4811 L199.053145,1951.4811 L198.50273,1955.70095 C198.869674,1955.80288 199.302871,1955.88442 199.802322,1955.94558 C200.301773,1956.00674 200.785935,1956.03731 201.254807,1956.03731 Z M223.760682,1948.69844 C225.248843,1948.69844 226.716617,1948.48949 228.164006,1948.07158 C229.611395,1947.65367 230.910987,1947.00133 232.062782,1946.11455 C233.214577,1945.22777 234.142129,1944.09636 234.845438,1942.72032 C235.548746,1941.34428 235.900401,1939.70832 235.900401,1937.81245 C235.900401,1935.77387 235.54365,1934.06147 234.830148,1932.67524 C234.116647,1931.28901 233.178902,1930.18308 232.016914,1929.35746 C230.854926,1928.53183 229.529852,1927.94065 228.041691,1927.58389 C226.553531,1927.22714 225.044985,1927.04877 223.516053,1927.04877 L223.516053,1927.04877 L215.687923,1927.04877 L215.687923,1948.69844 L223.760682,1948.69844 Z M223.271424,1944.1728 L220.794555,1944.1728 L220.794555,1931.51325 L223.393739,1931.51325 C224.290712,1931.51325 225.162203,1931.61518 226.008212,1931.81904 C226.854221,1932.02289 227.608494,1932.36435 228.271031,1932.84342 C228.933568,1933.32249 229.463598,1933.96464 229.86112,1934.76987 C230.258642,1935.57511 230.457404,1936.5893 230.457404,1937.81245 C230.457404,1939.01521 230.258642,1940.0243 229.86112,1940.83973 C229.463598,1941.65516 228.933568,1942.30751 228.271031,1942.79677 C227.608494,1943.28602 226.844028,1943.63768 225.977634,1943.85173 C225.111239,1944.06578 224.209169,1944.1728 223.271424,1944.1728 L223.271424,1944.1728 Z M245.410356,1949.1877 C246.959674,1949.1877 248.320423,1948.9074 249.492604,1948.34679 C250.664785,1947.78618 251.607626,1946.98604 252.321128,1945.94636 L252.321128,1945.94636 L248.835163,1943.7447 C248.488605,1944.21358 248.040119,1944.59581 247.489703,1944.8914 C246.939288,1945.187 246.266558,1945.33479 245.471513,1945.33479 C245.023027,1945.33479 244.589829,1945.26344 244.171921,1945.12074 C243.754013,1944.97804 243.376877,1944.77928 243.040512,1944.52446 C242.704147,1944.26964 242.428939,1943.96895 242.214889,1943.62239 C242.000838,1943.27583 241.873427,1942.8885 241.832656,1942.4604 L241.832656,1942.4604 L252.871543,1942.4604 C252.891929,1942.27693 252.902122,1942.08326 252.902122,1941.87941 L252.902122,1941.87941 L252.902122,1941.26783 C252.902122,1939.96315 252.713553,1938.80116 252.336417,1937.78187 C251.95928,1936.76258 251.434347,1935.89619 250.761617,1935.18269 C250.088887,1934.46918 249.28365,1933.92386 248.345905,1933.54673 C247.40816,1933.16959 246.37868,1932.98102 245.257463,1932.98102 C244.095475,1932.98102 243.01503,1933.17469 242.016128,1933.56202 C241.017226,1933.94935 240.150831,1934.49467 239.416944,1935.19797 C238.683056,1935.90128 238.102062,1936.75749 237.673961,1937.76658 C237.245861,1938.77568 237.03181,1939.90199 237.03181,1941.14552 C237.03181,1942.42982 237.250957,1943.57142 237.689251,1944.57033 C238.127545,1945.56923 238.728924,1946.41014 239.49339,1947.09306 C240.257856,1947.77599 241.149733,1948.29582 242.169021,1948.65257 C243.188309,1949.00932 244.268754,1949.1877 245.410356,1949.1877 Z M248.284748,1939.34138 L241.832656,1939.34138 C241.853042,1938.95405 241.95497,1938.58201 242.138442,1938.22526 C242.321914,1937.86851 242.566543,1937.55763 242.872329,1937.29261 C243.178116,1937.0276 243.534866,1936.81864 243.942582,1936.66575 C244.350297,1936.51286 244.798783,1936.43641 245.288042,1936.43641 C246.286944,1936.43641 247.03612,1936.72181 247.535571,1937.29261 C248.035022,1937.86341 248.284748,1938.54634 248.284748,1939.34138 L248.284748,1939.34138 Z M260.577359,1948.69844 L260.577359,1937.23145 L263.971588,1937.23145 L263.971588,1933.47028 L260.577359,1933.47028 L260.577359,1931.94135 C260.577359,1931.59479 260.607938,1931.24823 260.669095,1930.90168 C260.730252,1930.55512 260.842374,1930.24424 261.00546,1929.96903 C261.168546,1929.69382 261.392789,1929.47467 261.67819,1929.31159 C261.963591,1929.1485 262.340727,1929.06696 262.809599,1929.06696 C263.054228,1929.06696 263.298858,1929.08734 263.543487,1929.12812 C263.788116,1929.16889 264.002166,1929.21985 264.185638,1929.28101 L264.185638,1929.28101 L264.522003,1925.30579 C264.175445,1925.20386 263.793212,1925.12741 263.375304,1925.07645 C262.957396,1925.02548 262.534392,1925 262.106291,1925 C260.842374,1925 259.787411,1925.18857 258.941402,1925.5657 C258.095393,1925.94284 257.422663,1926.45249 256.923212,1927.09464 C256.423761,1927.73679 256.072107,1928.48087 255.868249,1929.32688 C255.664392,1930.17289 255.562463,1931.06476 255.562463,1932.00251 L255.562463,1932.00251 L255.562463,1933.47028 L252.779807,1933.47028 L252.779807,1937.23145 L255.562463,1937.23145 L255.562463,1948.69844 L260.577359,1948.69844 Z M268.588961,1931.36036 C268.976291,1931.36036 269.343234,1931.28901 269.689792,1931.14631 C270.03635,1931.00361 270.342136,1930.80994 270.607151,1930.56531 C270.872166,1930.32068 271.08112,1930.03019 271.234013,1929.69382 C271.386907,1929.35746 271.463353,1928.99561 271.463353,1928.60828 C271.463353,1928.22095 271.386907,1927.8591 271.234013,1927.52274 C271.08112,1927.18637 270.872166,1926.89588 270.607151,1926.65125 C270.342136,1926.40662 270.03635,1926.21295 269.689792,1926.07025 C269.343234,1925.92755 268.976291,1925.8562 268.588961,1925.8562 C268.181246,1925.8562 267.80411,1925.93265 267.457552,1926.08554 C267.110994,1926.23843 266.805208,1926.4372 266.540193,1926.68182 C266.275178,1926.92645 266.07132,1927.21695 265.92862,1927.55332 C265.78592,1927.88968 265.71457,1928.24134 265.71457,1928.60828 C265.71457,1929.36255 265.989777,1930.0098 266.540193,1930.55002 C267.090608,1931.09024 267.773531,1931.36036 268.588961,1931.36036 Z M271.096409,1948.69844 L271.096409,1933.47028 L266.050935,1933.47028 L266.050935,1948.69844 L271.096409,1948.69844 Z M279.841899,1941.45131 L279.841899,1927.04877 L274.704688,1927.04877 L274.704688,1941.45131 L279.841899,1941.45131 Z M277.273294,1949.00423 C277.681009,1949.00423 278.068338,1948.92778 278.435282,1948.77489 C278.802226,1948.622 279.123301,1948.41814 279.398509,1948.16332 C279.673717,1947.90849 279.887767,1947.60271 280.04066,1947.24596 C280.193553,1946.88921 280.27,1946.50697 280.27,1946.09926 C280.27,1945.71193 280.193553,1945.33989 280.04066,1944.98314 C279.887767,1944.62639 279.673717,1944.3206 279.398509,1944.06578 C279.123301,1943.81096 278.802226,1943.6071 278.435282,1943.45421 C278.068338,1943.30131 277.681009,1943.22487 277.273294,1943.22487 C276.865579,1943.22487 276.478249,1943.30131 276.111306,1943.45421 C275.744362,1943.6071 275.428383,1943.81605 275.163368,1944.08107 C274.898353,1944.34608 274.689399,1944.65697 274.536506,1945.01372 C274.383613,1945.37047 274.307166,1945.74251 274.307166,1946.12984 C274.307166,1946.53755 274.388709,1946.91469 274.551795,1947.26125 C274.714881,1947.6078 274.928932,1947.91359 275.193947,1948.17861 C275.458961,1948.44362 275.769844,1948.64748 276.126595,1948.79018 C276.483346,1948.93288 276.865579,1949.00423 277.273294,1949.00423 Z" id="ohmyDef!-Copy"></path>
        </g>
    </g>
</svg>